<?xml version="1.0" encoding="UTF-8"?>
<svg version="1.1" xmlns="http://www.w3.org/2000/svg" width="1536" height="1024">
<path d="M0 0 C506.88 0 1013.76 0 1536 0 C1536 337.92 1536 675.84 1536 1024 C1029.12 1024 522.24 1024 0 1024 C0 686.08 0 348.16 0 0 Z " fill="#FEFEFE" transform="translate(0,0)"/>
<path d="M0 0 C1.06145233 -0.0127597 2.12290466 -0.02551941 3.21652222 -0.03866577 C4.92909714 -0.04200424 4.92909714 -0.04200424 6.67626953 -0.04541016 C7.85496613 -0.05206696 9.03366272 -0.05872375 10.24807739 -0.06558228 C12.74121541 -0.07570651 15.23438051 -0.08039937 17.72753906 -0.08007812 C21.53772757 -0.08444816 25.34675495 -0.12076397 29.15673828 -0.15869141 C31.57991141 -0.16456021 34.00309003 -0.16852917 36.42626953 -0.17041016 C37.56393768 -0.18478119 38.70160583 -0.19915222 39.87374878 -0.21395874 C46.0950875 -0.17810646 49.99530753 0.02796002 54.68408203 4.29052734 C55.89892578 6.34912109 55.89892578 6.34912109 56.62158203 8.72802734 C57.07597656 10.14728516 57.07597656 10.14728516 57.53955078 11.59521484 C57.91724609 12.81466797 58.29494141 14.03412109 58.68408203 15.29052734 C59.27994328 17.06544777 59.88061698 18.83875645 60.48486328 20.61083984 C63.08536802 28.26457582 63.08536802 28.26457582 64.29345703 31.88818359 C64.56125977 32.68748291 64.8290625 33.48678223 65.10498047 34.31030273 C65.68408203 36.29052734 65.68408203 36.29052734 65.68408203 38.29052734 C66.63291354 38.28684017 67.58174505 38.283153 68.55932903 38.2793541 C91.635527 38.19059643 114.71170285 38.12484362 137.78803539 38.08327866 C148.94753774 38.06264441 160.1069274 38.03450726 171.26635742 37.98876953 C180.99175332 37.94892826 190.71706761 37.92310081 200.44254285 37.91417336 C205.59319332 37.90895404 210.74361031 37.8966687 215.89418602 37.86760712 C220.74096995 37.84048091 225.58742395 37.83207672 230.43427658 37.83809662 C232.21407043 37.83699513 233.99387518 37.82902461 235.77360344 37.81370544 C238.20264003 37.79382084 240.63042892 37.79858195 243.05949402 37.80950928 C243.76475525 37.79785791 244.47001647 37.78620655 245.19664925 37.77420211 C248.70965602 37.81695727 250.61008764 38.24365757 253.60563278 40.14110565 C256.2669715 42.89332064 256.53822628 44.49535297 256.68408203 48.29052734 C256.31321716 51.2288208 256.31321716 51.2288208 255.60766602 54.34228516 C255.21616615 56.10768646 255.21616615 56.10768646 254.8167572 57.90875244 C254.52418533 59.17426941 254.23161346 60.43978638 253.93017578 61.74365234 C253.62828487 63.08505222 253.32736537 64.42667104 253.02735901 65.76849365 C252.23232623 69.31176171 251.42386651 72.85183502 250.61260986 76.39141846 C249.81241254 79.89368669 249.02517096 83.39885933 248.23681641 86.90380859 C246.85028232 93.06187249 245.44404301 99.21523372 244.03084373 105.36722565 C242.99753482 109.88029205 242.00176731 114.4005597 241.02050781 118.92529297 C240.75794693 120.11588318 240.49538605 121.30647339 240.22486877 122.53314209 C239.73676699 124.74828302 239.25801411 126.96551411 238.79063416 129.18511963 C236.14610544 141.05081501 236.14610544 141.05081501 230.93066978 144.42487526 C228.06740145 145.52814585 225.73233283 145.54836051 222.66275024 145.55795288 C220.81218773 145.57074783 220.81218773 145.57074783 218.92424011 145.58380127 C217.55984484 145.58310227 216.19544967 145.58217922 214.83105469 145.58105469 C213.39193879 145.58704007 211.95282611 145.59384564 210.51371765 145.60140991 C206.60663429 145.61907617 202.69963853 145.62376555 198.79251909 145.62504148 C196.35081986 145.62646329 193.90914289 145.63073342 191.46744919 145.63603592 C182.94719784 145.65453823 174.42700906 145.66270628 165.90673828 145.66113281 C157.96777231 145.65993134 150.02907818 145.68103421 142.09018099 145.71262014 C135.27136635 145.73878176 128.45264051 145.74950016 121.63377607 145.74822199 C117.56242083 145.74771232 113.49130718 145.75339801 109.42000198 145.77457809 C105.59003848 145.79395876 101.76054706 145.79408651 97.93056679 145.77954483 C96.52692665 145.77745539 95.12325698 145.78216583 93.71966743 145.79426575 C80.39258436 145.90169058 80.39258436 145.90169058 75.68408203 141.29052734 C74.43339539 139.55929565 74.43339539 139.55929565 73.68286133 137.65722656 C73.36932709 136.86427185 73.05579285 136.07131714 72.73275757 135.2543335 C70.28737832 128.3431109 67.97451234 121.39366658 65.70361328 114.42333984 C65.12597352 112.66228385 64.54789566 110.90137151 63.96940613 109.14059448 C62.44810473 104.5064875 60.93232218 99.87059448 59.41784668 95.23425293 C57.90735488 90.61271242 56.39238483 85.99264141 54.87744141 81.37255859 C54.28212897 79.55694778 53.68682254 77.741335 53.09152222 75.92572021 C52.79966915 75.03562004 52.50781609 74.14551987 52.20711899 73.22844696 C51.33420674 70.56540414 50.46196826 67.90214145 49.58987427 65.23883057 C45.00436677 51.2393211 40.36780438 37.25750773 35.68408203 23.29052734 C33.82275635 23.28436401 33.82275635 23.28436401 31.92382812 23.27807617 C27.30524569 23.25624954 22.68751089 23.20192302 18.06933594 23.13793945 C16.07332504 23.11479026 14.07719252 23.10037098 12.08105469 23.0949707 C9.20577478 23.08565864 6.33239952 23.04461918 3.45751953 22.99755859 C2.56978851 23.00149124 1.6820575 23.00542389 0.76742554 23.00947571 C-3.54234906 22.90874336 -6.44132324 22.64168668 -9.86767578 19.88671875 C-12.96953161 16.59741531 -13.34364988 14.86547056 -13.55419922 10.50927734 C-13.17037988 6.93535303 -11.68351523 4.91408106 -9.31591797 2.29052734 C-6.16609465 0.30569046 -3.69083993 0.03017991 0 0 Z " fill="#2070C4" transform="translate(155.31591796875,391.70947265625)"/>
<path d="M0 0 C10.35291882 8.84536155 16.59709677 19.38037981 18.37890625 32.99609375 C19.42286433 49.54539651 16.97054919 64.97753312 6.484375 78.42578125 C-3.58192297 89.51925248 -17.95949625 94.42559219 -32.63671875 95.2734375 C-47.09809214 95.78094466 -60.88467358 92.34602415 -72.43359375 83.24609375 C-82.93808164 73.40774412 -88.05447017 60.14561434 -88.84375 46.0078125 C-89.29477448 30.56675428 -86.22749253 15.77769552 -75.30859375 4.05859375 C-54.93801575 -14.31130248 -22.06132936 -16.8665603 0 0 Z " fill="#0C2035" transform="translate(800.62109375,480.00390625)"/>
<path d="M0 0 C8.91 0 17.82 0 27 0 C27.33 20.13 27.66 40.26 28 61 C32.95 54.565 32.95 54.565 38 48 C39.8074457 45.68354742 41.61877057 43.3701039 43.4375 41.0625 C44.36718941 39.88151192 45.29687686 38.70052229 46.2265625 37.51953125 C47.15101686 36.34633462 48.07549571 35.17315729 49 34 C50.77166253 31.7506515 52.54243395 29.50060501 54.3125 27.25 C54.75190918 26.69159424 55.19131836 26.13318848 55.64404297 25.55786133 C58.35310933 22.11052858 61.04808865 18.6526181 63.734375 15.1875 C64.68703247 13.95918457 64.68703247 13.95918457 65.65893555 12.70605469 C66.90905672 11.09309855 68.15795694 9.47919523 69.40551758 7.86425781 C69.97423584 7.13045898 70.5429541 6.39666016 71.12890625 5.640625 C71.63494385 4.98610352 72.14098145 4.33158203 72.66235352 3.65722656 C74 2 74 2 76 0 C79.07275391 -0.22705078 79.07275391 -0.22705078 82.9765625 -0.1953125 C84.00443375 -0.19106766 84.00443375 -0.19106766 85.05307007 -0.18673706 C87.24389027 -0.17553281 89.43430316 -0.15042859 91.625 -0.125 C93.1093691 -0.11497048 94.5937446 -0.10584458 96.078125 -0.09765625 C99.71888261 -0.07559294 103.35940156 -0.04106176 107 0 C105.80110665 3.28429234 104.55740756 5.85273701 102.3125 8.53125 C101.78382324 9.1701416 101.25514648 9.8090332 100.71044922 10.46728516 C100.14600098 11.13808105 99.58155273 11.80887695 99 12.5 C97.81375222 13.93377836 96.62887096 15.36868835 95.4453125 16.8046875 C94.85911133 17.51463867 94.27291016 18.22458984 93.66894531 18.95605469 C91.34542112 21.80165804 89.10056478 24.70249995 86.875 27.625 C83.46863459 32.08794402 80.03365715 36.52478382 76.5625 40.9375 C76.11342285 41.51177734 75.6643457 42.08605469 75.20166016 42.67773438 C72.77953692 45.7690717 70.3258752 48.8280301 67.82421875 51.85546875 C67.30980225 52.48654541 66.79538574 53.11762207 66.26538086 53.76782227 C65.27525774 54.98126944 64.27512069 56.18663235 63.26391602 57.38256836 C60.72541946 60.25646734 60.72541946 60.25646734 60.17260742 63.85668945 C61.23038247 66.59679189 62.67812004 68.81442223 64.31640625 71.25390625 C64.99896484 72.27419922 65.68152344 73.29449219 66.38476562 74.34570312 C67.10341797 75.40724609 67.82207031 76.46878906 68.5625 77.5625 C69.25408203 78.59697266 69.94566406 79.63144531 70.65820312 80.69726562 C74.69016159 86.6982327 78.84738194 92.58642482 83.12231445 98.41625977 C85.93388954 102.28505435 88.6276916 106.23013573 91.3125 110.1875 C94.60779216 115.03686342 97.90564927 119.88181816 101.28125 124.67578125 C101.79260498 125.40579346 102.30395996 126.13580566 102.83081055 126.88793945 C103.79806212 128.26669928 104.77065659 129.64173063 105.74926758 131.01245117 C109 135.66445598 109 135.66445598 109 139 C87.39417726 142.61608038 87.39417726 142.61608038 78 139 C70.33386202 133.09255702 66.070725 123.99687908 61.8046875 115.50146484 C59.28763912 110.61787342 56.32598515 106.08641906 53.3125 101.5 C52.37190599 100.00666616 51.4354683 98.51070347 50.50390625 97.01171875 C48.27274315 93.43219026 46.01743295 89.86916918 43.75 86.3125 C43.20859375 85.46300781 42.6671875 84.61351562 42.109375 83.73828125 C41.74328125 83.16464844 41.3771875 82.59101562 41 82 C35.34342525 84.55124221 30.5776175 88.22374827 28 94 C26.37099339 101.54941359 26.83080976 109.44807101 26.9375 117.125 C26.9344217 119.24740568 26.92729791 121.36980957 26.91601562 123.4921875 C26.8897514 128.6642201 26.94676703 133.82575519 27 139 C18.09 139 9.18 139 0 139 C0 93.13 0 47.26 0 0 Z " fill="#2171C4" transform="translate(1031,434)"/>
<path d="M0 0 C6.94829363 6.44883912 10.44558822 14.7031511 11.18702698 24.12705994 C11.29813423 27.27163707 11.35356231 30.41222924 11.38671875 33.55859375 C11.4060849 34.70146851 11.42545105 35.84434326 11.44540405 37.02185059 C11.50486976 40.64860728 11.5514531 44.27539628 11.59765625 47.90234375 C11.63586639 50.37110709 11.67491986 52.83985753 11.71484375 55.30859375 C11.81054404 61.33972869 11.89568696 67.37094223 11.97265625 73.40234375 C13.95265625 74.39234375 15.93265625 75.38234375 17.97265625 76.40234375 C17.97265625 82.34234375 17.97265625 88.28234375 17.97265625 94.40234375 C10.54376786 96.25956585 0.31425041 97.04574404 -6.77734375 93.71484375 C-10.95853873 90.7397627 -13.21796333 87.61641437 -16.02734375 83.40234375 C-16.54941406 83.9334375 -17.07148437 84.46453125 -17.609375 85.01171875 C-23.2855114 90.45921918 -28.47192445 93.29634499 -36.02734375 95.40234375 C-36.65769531 95.59441406 -37.28804687 95.78648437 -37.9375 95.984375 C-48.44272611 98.08542022 -59.0407346 96.43289577 -68.27734375 91.15234375 C-74.6744323 86.82300099 -79.54072219 81.10799881 -81.02734375 73.40234375 C-81.93749112 62.70811214 -81.34326319 54.11488403 -74.46484375 45.65234375 C-65.88989039 36.71945223 -54.17513136 33.89627124 -42.08056641 33.16308594 C-38.10019653 33.10940926 -34.13227 33.13868226 -30.15234375 33.21484375 C-28.77084825 33.22994827 -27.38933641 33.24362628 -26.0078125 33.25585938 C-22.68055509 33.29076068 -19.35417614 33.33978519 -16.02734375 33.40234375 C-16.3020296 31.47634224 -16.58969045 29.55218824 -16.8828125 27.62890625 C-17.12100708 26.02136475 -17.12100708 26.02136475 -17.36401367 24.38134766 C-18.32800696 20.05207047 -19.72022392 18.32491476 -23.02734375 15.40234375 C-29.17062309 12.35713816 -36.75664391 12.18940689 -43.32421875 14.0546875 C-46.71990554 15.74527516 -48.35730621 17.63245568 -49.70703125 21.0546875 C-50.14273438 22.15941406 -50.5784375 23.26414062 -51.02734375 24.40234375 C-55.00649534 24.43121359 -58.98562028 24.44909781 -62.96484375 24.46484375 C-64.66930664 24.47741211 -64.66930664 24.47741211 -66.40820312 24.49023438 C-67.48779297 24.49345703 -68.56738281 24.49667969 -69.6796875 24.5 C-71.1800354 24.50785522 -71.1800354 24.50785522 -72.71069336 24.51586914 C-75.02734375 24.40234375 -75.02734375 24.40234375 -76.02734375 23.40234375 C-77.15341769 16.16329701 -73.8428674 10.40750409 -70.02734375 4.40234375 C-54.22854717 -14.56309616 -18.5061048 -14.58380898 0 0 Z " fill="#0C1F34" transform="translate(987.02734375,478.59765625)"/>
<path d="M0 0 C1.32330322 0.00737183 1.32330322 0.00737183 2.67333984 0.01489258 C9.22618816 0.13257589 15.07347026 0.81677311 21.1875 3.3125 C22.05632812 3.66441406 22.92515625 4.01632812 23.8203125 4.37890625 C31.95235971 8.05653357 37.51350406 13.04220987 41.36328125 21.125 C44.11105741 28.41767605 44.52162594 34.81721536 44.6015625 42.58984375 C44.62092865 43.7563295 44.6402948 44.92281525 44.6602478 46.12464905 C44.71980104 49.83302608 44.76633229 53.54143456 44.8125 57.25 C44.85070206 59.77149756 44.88975508 62.29298238 44.9296875 64.81445312 C45.02548267 70.98035527 45.1106007 77.14633479 45.1875 83.3125 C47.1675 83.9725 49.1475 84.6325 51.1875 85.3125 C51.1875 91.5825 51.1875 97.8525 51.1875 104.3125 C47.85514222 105.97867889 44.16025012 105.53920485 40.5 105.5625 C39.70916016 105.583125 38.91832031 105.60375 38.10351562 105.625 C31.28403604 105.67005024 26.63459812 104.38721362 21.3125 99.875 C19.26723227 97.40864774 18.78816579 96.32221901 18.1875 93.3125 C17.53523438 93.85519531 16.88296875 94.39789062 16.2109375 94.95703125 C5.07539554 104.07240852 -5.29250103 107.7519051 -19.8125 106.3125 C-29.59589442 104.31727704 -37.43726349 100.86771337 -43.6875 92.9375 C-48.28270915 85.83581312 -48.65193782 77.53686548 -47.8125 69.3125 C-45.85918528 61.19513222 -41.49990766 54.27415789 -34.3828125 49.77734375 C-22.15378096 43.40263582 -10.31192572 43.1640585 3.1875 43.25 C4.54817544 43.25502513 5.90885267 43.25958624 7.26953125 43.26367188 C10.57556725 43.27539541 13.88151001 43.29180573 17.1875 43.3125 C16.89911021 41.55089235 16.60181471 39.79074113 16.30078125 38.03125 C16.13618408 37.05091797 15.97158691 36.07058594 15.80200195 35.06054688 C14.77209761 30.45482446 12.76366174 27.49462131 9.015625 24.68359375 C5.43338667 22.94690086 2.72030668 22.87899829 -1.25 22.875 C-2.52746094 22.85566406 -3.80492187 22.83632813 -5.12109375 22.81640625 C-9.49413477 23.40410594 -11.51881661 24.3884674 -14.8125 27.3125 C-15.8025 29.6225 -16.7925 31.9325 -17.8125 34.3125 C-25.7325 34.3125 -33.6525 34.3125 -41.8125 34.3125 C-43.112494 27.81253002 -41.7643897 24.13818708 -38.8125 18.3125 C-32.26744393 8.67442166 -23.25898533 3.34008524 -11.99682617 0.69189453 C-8.00639679 -0.00120117 -4.04130503 -0.02663324 0 0 Z " fill="#2171C4" transform="translate(1191.8125,468.6875)"/>
<path d="M0 0 C4.09338652 -0.04939115 8.18665798 -0.08571501 12.28027344 -0.10986328 C13.67320781 -0.11992877 15.06612102 -0.13358234 16.45898438 -0.15087891 C18.4595436 -0.1751022 20.46025615 -0.18540814 22.4609375 -0.1953125 C24.26763916 -0.21102295 24.26763916 -0.21102295 26.11083984 -0.22705078 C29 0 29 0 31 2 C31.96208655 4.82859873 32.83390072 7.63924272 33.66015625 10.5078125 C33.92222366 11.39721024 34.18429108 12.28660797 34.45429993 13.20295715 C35.02727433 15.14954306 35.5973686 17.09697844 36.16497803 19.0451355 C37.70493448 24.32952669 39.26596112 29.60770117 40.82421875 34.88671875 C41.15448059 36.00762405 41.48474243 37.12852936 41.82501221 38.28340149 C45.92935608 52.19200502 50.15351735 66.06412164 54.375 79.9375 C55.13813982 82.44741695 55.90124288 84.95734508 56.66430664 87.46728516 C58.44156275 93.31192206 60.22015409 99.15615125 62 105 C62.21503174 104.25893509 62.43006348 103.51787018 62.65161133 102.75434875 C68.39378074 82.9666725 74.13914663 63.17992135 79.90061951 43.39785576 C81.08374246 39.33545316 82.26607044 35.27282232 83.44677734 31.2097168 C84.61608972 27.18590972 85.78724886 23.16264458 86.95974731 19.13976479 C87.40058372 17.62605298 87.84075717 16.11214794 88.28024292 14.59804344 C88.88557258 12.51300069 89.49326881 10.42866204 90.1015625 8.34448242 C90.44525879 7.16335373 90.78895508 5.98222504 91.14306641 4.76530457 C92 2 92 2 93 0 C102.24 0 111.48 0 121 0 C122.13825415 3.41476245 121.85976914 4.20226324 120.79443359 7.52563477 C120.3542691 8.92117584 120.3542691 8.92117584 119.9052124 10.34490967 C119.57297668 11.36675354 119.24074097 12.38859741 118.8984375 13.44140625 C118.55427795 14.52391663 118.21011841 15.606427 117.85552979 16.72174072 C116.70363791 20.33802985 115.53929643 23.95018738 114.375 27.5625 C113.56735815 30.08982481 112.76043948 32.61736811 111.95458984 35.14526367 C110.45187381 39.85593139 108.94570224 44.56547183 107.4355793 49.27377033 C104.36121248 58.85920028 101.31035813 68.45199649 98.265625 78.046875 C97.31601245 81.03836008 96.3662653 84.02980241 95.41650391 87.02124023 C95.18419634 87.75295157 94.95188877 88.48466291 94.71254158 89.23854733 C92.46616515 96.31363511 90.21882676 103.38841436 87.96675873 110.46169281 C87.37564609 112.31886484 86.78536995 114.17630306 86.19512939 116.03375244 C84.41404696 121.62509498 82.61814906 127.21152515 80.79052734 132.7878418 C80.30995377 134.25691231 80.30995377 134.25691231 79.81967163 135.75566101 C79 138 79 138 78 139 C75.6243148 139.0883967 73.27791326 139.11530305 70.90234375 139.09765625 C69.83905602 139.09553383 69.83905602 139.09553383 68.75428772 139.09336853 C66.48198288 139.08775443 64.20977525 139.07519963 61.9375 139.0625 C60.40039204 139.05748681 58.86328255 139.05292359 57.32617188 139.04882812 C53.55074358 139.03778042 49.77538829 139.02050641 46 139 C42.75341575 132.13310784 40.24430422 125.12868098 37.875 117.91796875 C37.49138306 116.76287308 37.10776611 115.6077774 36.71252441 114.41767883 C35.68342929 111.31642332 34.65827937 108.21389948 33.63491821 105.11074829 C32.56663855 101.87479287 31.49308869 98.64058724 30.41992188 95.40625 C28.71777912 90.27467558 27.01812998 85.14228452 25.3203125 80.00927734 C22.62989113 71.87767577 19.92250137 63.75179717 17.20983887 55.62759399 C16.50621972 53.51864231 15.8041157 51.4091925 15.10253906 49.29956055 C12.96060888 42.86079292 10.8090867 36.42558136 8.63183594 29.99865723 C7.58482376 26.90644099 6.54212189 23.81277917 5.49975586 20.71899414 C5.00604391 19.25779327 4.51016748 17.79732167 4.01196289 16.33764648 C3.33070739 14.34145824 2.65678193 12.34293294 1.984375 10.34375 C1.40768066 8.64508789 1.40768066 8.64508789 0.81933594 6.91210938 C0 4 0 4 0 0 Z " fill="#0C2035" transform="translate(441,434)"/>
<path d="M0 0 C7.58798595 6.69229941 13.5225161 19.13722865 14.17260742 29.14355469 C14.23577277 32.07262939 14.22778532 34.99240238 14.19140625 37.921875 C14.19043945 39.43587891 14.19043945 39.43587891 14.18945312 40.98046875 C14.14447836 48.40630289 14.14447836 48.40630289 13.00390625 49.546875 C10.91771603 49.64105273 8.82830148 49.66430378 6.73999023 49.66040039 C5.75953735 49.66061943 5.75953735 49.66061943 4.75927734 49.6608429 C2.58948497 49.66014383 0.41977746 49.65235178 -1.75 49.64453125 C-3.25072686 49.64266705 -4.75145432 49.64124316 -6.25218201 49.64024353 C-10.20927601 49.63641852 -14.16633353 49.6265884 -18.12341309 49.61553955 C-22.15844224 49.60532506 -26.19347728 49.60074583 -30.22851562 49.59570312 C-38.15105844 49.58496611 -46.07357156 49.5678899 -53.99609375 49.546875 C-53.53279283 51.47626094 -53.06435866 53.40441475 -52.59375 55.33203125 C-52.33343994 56.40590088 -52.07312988 57.47977051 -51.80493164 58.58618164 C-50.18349162 64.52134708 -47.68401814 67.42281929 -42.43359375 70.421875 C-36.10251418 73.29879204 -30.17008147 73.76347917 -23.4765625 71.8125 C-19.74047869 70.30071816 -17.4971769 69.21898653 -15.0390625 65.921875 C-10.18615034 62.13423624 -5.14383608 63.01733536 0.81640625 63.234375 C2.57114258 63.26821289 2.57114258 63.26821289 4.36132812 63.30273438 C7.24349394 63.36155409 10.12304306 63.44370359 13.00390625 63.546875 C14.00390625 66.546875 14.00390625 66.546875 13.140625 68.89453125 C7.31372216 79.81015786 -0.28814619 88.1021912 -11.99609375 92.546875 C-12.79015625 92.86398437 -13.58421875 93.18109375 -14.40234375 93.5078125 C-28.45903382 98.2367607 -44.61369881 96.6282446 -57.765625 90.19140625 C-69.69244379 83.521686 -76.66345477 73.44914686 -81.43359375 60.734375 C-83.19155778 54.47541687 -83.38036449 48.34042486 -83.43359375 41.859375 C-83.44382568 40.89733154 -83.45405762 39.93528809 -83.46459961 38.9440918 C-83.31490846 26.73955292 -79.17471246 14.28456699 -70.7734375 5.19921875 C-63.79113311 -1.29202247 -55.91498505 -5.26424766 -46.99609375 -8.453125 C-46.320625 -8.700625 -45.64515625 -8.948125 -44.94921875 -9.203125 C-29.50211017 -13.95608149 -12.67968731 -9.23061385 0 0 Z " fill="#0C1F34" transform="translate(636.99609375,479.453125)"/>
<path d="M0 0 C1.07125626 -0.0071553 2.14251251 -0.01431061 3.24623108 -0.02168274 C6.7575352 -0.03847564 10.26754579 -0.01922354 13.77880859 0.00219727 C16.23399969 0.00136783 18.68919072 -0.00109436 21.14437866 -0.00511169 C26.27692481 -0.00796312 31.40903298 0.00667049 36.54150391 0.03417969 C43.10975309 0.06829649 49.67722138 0.06222554 56.24550819 0.04351711 C61.31054153 0.03293464 66.37539407 0.04189587 71.44041061 0.05690193 C73.86203855 0.06207255 76.28368545 0.0616156 78.70531082 0.05535698 C82.09171239 0.04988852 85.47700603 0.07033277 88.86328125 0.09765625 C89.85674057 0.09113037 90.85019989 0.08460449 91.87376404 0.07788086 C100.22387975 0.19206546 106.75172984 2.74411473 112.80224609 8.63110352 C118.64578596 16.7921946 119.72716827 23.58601844 118.80224609 33.63110352 C116.45479711 41.77038926 111.17528447 47.60403964 103.86083984 51.72485352 C97.4476323 54.52334408 90.32901968 54.66847714 83.67724609 52.56860352 C77.733915 49.99396211 72.675555 45.6036808 69.30224609 40.06860352 C67.80224609 35.63110352 67.80224609 35.63110352 67.80224609 21.63110352 C51.96224609 21.63110352 36.12224609 21.63110352 19.80224609 21.63110352 C20.29724609 22.62110352 20.29724609 22.62110352 20.80224609 23.63110352 C21.82444744 31.40653674 19.85308758 38.28697053 15.36474609 44.67797852 C10.31477158 50.35919985 3.81929153 52.83591821 -3.58837891 54.01000977 C-10.88852451 54.40564703 -16.47611583 51.41063611 -22.44775391 47.50610352 C-28.31516311 41.3719939 -31.55562371 33.55661913 -31.40478516 25.09594727 C-30.71884535 16.92938091 -27.26733976 11.03406104 -21.19775391 5.63110352 C-14.26599543 1.05594433 -8.18392772 -0.09671222 0 0 Z " fill="#2171C4" transform="translate(266.19775390625,549.368896484375)"/>
<path d="M0 0 C4.31254083 -0.02682299 8.62491707 -0.04675244 12.9375 -0.0625 C14.78504883 -0.07506836 14.78504883 -0.07506836 16.66992188 -0.08789062 C18.4246582 -0.09272461 18.4246582 -0.09272461 20.21484375 -0.09765625 C21.84087524 -0.10551147 21.84087524 -0.10551147 23.49975586 -0.11352539 C26 0 26 0 27 1 C27.08700342 2.63472882 27.10701063 4.27314055 27.09765625 5.91015625 C27.09515869 6.800979 27.09266113 7.69180176 27.09008789 8.60961914 C27.08098389 9.74906982 27.07187988 10.88852051 27.0625 12.0625 C27.041875 15.671875 27.02125 19.28125 27 23 C34.26 23 41.52 23 49 23 C49 30.26 49 37.52 49 45 C41.74 45 34.48 45 27 45 C27.07404732 52.01151496 27.15692555 59.02176577 27.26245117 66.03271484 C27.29566646 68.41676241 27.32370892 70.80088797 27.34643555 73.18505859 C27.38004318 76.61589739 27.43236407 80.04602363 27.48828125 83.4765625 C27.49467117 84.53928375 27.5010611 85.602005 27.50764465 86.69692993 C27.61579329 92.16378696 27.8190953 96.3290113 31 101 C34.74680022 103.21313588 38.52294917 103.36502722 42.8125 103.625 C44.854375 103.74875 46.89625 103.8725 49 104 C49 110.6 49 117.2 49 124 C43.46592724 126.21362911 39.58878487 126.3329726 33.75 126.3125 C32.84636719 126.32861328 31.94273438 126.34472656 31.01171875 126.36132812 C21.22814072 126.36836667 14.11656065 124.09129025 6.94921875 117.32421875 C3.83994499 113.61676807 2.31761707 109.61165973 1 105 C0.8238063 104.40801819 0.64761261 103.81603638 0.46607971 103.20611572 C-0.09380243 100.55600079 -0.1196279 98.11478675 -0.11352539 95.40527344 C-0.11344986 94.28441345 -0.11337433 93.16355347 -0.11329651 92.00872803 C-0.10813522 90.80444153 -0.10297394 89.60015503 -0.09765625 88.359375 C-0.0962413 87.12205627 -0.09482635 85.88473755 -0.09336853 84.60992432 C-0.0887211 81.32855059 -0.07974347 78.04722627 -0.06866455 74.76586914 C-0.0584152 71.41422989 -0.05394859 68.06258852 -0.04882812 64.7109375 C-0.03780024 58.1406032 -0.02053617 51.57031119 0 45 C-4.95 45 -9.9 45 -15 45 C-15.02683201 41.52078265 -15.0467567 38.04176961 -15.0625 34.5625 C-15.07087891 33.56927734 -15.07925781 32.57605469 -15.08789062 31.55273438 C-15.09111328 30.60849609 -15.09433594 29.66425781 -15.09765625 28.69140625 C-15.10289307 27.81685791 -15.10812988 26.94230957 -15.11352539 26.04125977 C-15 24 -15 24 -14 23 C-9.33154772 22.85573386 -4.67134047 22.95791585 0 23 C0 15.41 0 7.82 0 0 Z " fill="#2170C5" transform="translate(1338,448)"/>
<path d="M0 0 C4.47915328 -0.02886338 8.95828291 -0.04675187 13.4375 -0.0625 C14.71689453 -0.07087891 15.99628906 -0.07925781 17.31445312 -0.08789062 C19.13686523 -0.09272461 19.13686523 -0.09272461 20.99609375 -0.09765625 C22.12200928 -0.10289307 23.2479248 -0.10812988 24.40795898 -0.11352539 C27 0 27 0 28 1 C28.10332904 2.43286549 28.13794377 3.87075707 28.14476013 5.30732727 C28.15165863 6.2368924 28.15855713 7.16645752 28.16566467 8.12419128 C28.16827805 9.1522438 28.17089142 10.18029633 28.17358398 11.23950195 C28.180271 12.31586914 28.18695801 13.39223633 28.19384766 14.5012207 C28.20793619 16.84754092 28.219818 19.19387515 28.22979546 21.54021645 C28.24614801 25.25059198 28.26938369 28.96086379 28.29469299 32.67118835 C28.36562532 43.22369434 28.42564843 53.77623962 28.47680664 64.32885742 C28.50856464 70.77505157 28.54983506 77.22112787 28.59700203 83.66722679 C28.6130447 86.12842886 28.62535575 88.58965811 28.63390923 91.0508976 C28.64603685 94.4914918 28.67017707 97.93180816 28.69702148 101.37231445 C28.69761063 102.39429428 28.69819977 103.41627411 28.69880676 104.46922302 C28.70852509 105.40724762 28.71824341 106.34527222 28.72825623 107.3117218 C28.73248816 108.12528798 28.7367201 108.93885416 28.74108028 109.77707386 C28.91942655 112.40673623 28.91942655 112.40673623 31 116 C33.97 116.66 36.94 117.32 40 118 C40 124.93 40 131.86 40 139 C30.12501481 140.97499704 18.941104 141.93498862 10.01953125 136.5546875 C4.71824099 132.47361686 1.69582175 128.51950471 0 122 C-0.28569433 118.03932115 -0.25255255 114.08901089 -0.22705078 110.11962891 C-0.22734283 108.92881714 -0.22763489 107.73800537 -0.22793579 106.5111084 C-0.22678426 103.25943181 -0.21677944 100.00792916 -0.20278788 96.7562871 C-0.19025383 93.35302523 -0.18910791 89.94975966 -0.18673706 86.54647827 C-0.18053013 80.1080225 -0.16413001 73.66963494 -0.14403808 67.23120916 C-0.12165453 59.89869194 -0.11067948 52.56617141 -0.10064721 45.23362851 C-0.07976305 30.15571438 -0.04460244 15.07786403 0 0 Z " fill="#0B1F33" transform="translate(666,434)"/>
<path d="M0 0 C1.16305664 0.0009668 1.16305664 0.0009668 2.34960938 0.00195312 C8.046813 0.046813 8.046813 0.046813 9.1875 1.1875 C9.27476223 2.96821246 9.29449041 4.7523314 9.28515625 6.53515625 C9.28193359 7.61474609 9.27871094 8.69433594 9.27539062 9.80664062 C9.26282227 11.51110352 9.26282227 11.51110352 9.25 13.25 C9.24548828 14.39017578 9.24097656 15.53035156 9.23632812 16.70507812 C9.22449747 19.53260351 9.2080141 22.3600264 9.1875 25.1875 C5.4493059 25.99566271 2.26116932 26.18713726 -1.5625 26 C-9.09722399 25.95366098 -14.17557301 27.72254651 -19.6875 32.875 C-24.91908729 41.03012136 -25.26322943 48.99214921 -25.2890625 58.5 C-25.30464203 59.75006836 -25.32022156 61.00013672 -25.33627319 62.28808594 C-25.37554832 65.58214842 -25.40301593 68.8760047 -25.42376709 72.17022705 C-25.4555425 76.83782231 -25.50679913 81.50521591 -25.56015015 86.17260742 C-25.58743547 88.65317928 -25.60876102 91.13382494 -25.62368774 93.61450195 C-25.63908096 95.28258911 -25.63908096 95.28258911 -25.65478516 96.984375 C-25.66128082 97.96760742 -25.66777649 98.95083984 -25.67446899 99.96386719 C-25.8125 102.1875 -25.8125 102.1875 -26.8125 103.1875 C-35.7225 103.1875 -44.6325 103.1875 -53.8125 103.1875 C-53.8125 69.8575 -53.8125 36.5275 -53.8125 2.1875 C-45.2325 2.1875 -36.6525 2.1875 -27.8125 2.1875 C-27.4825 6.4775 -27.1525 10.7675 -26.8125 15.1875 C-25.94625 13.785 -25.08 12.3825 -24.1875 10.9375 C-18.15030342 1.91004878 -10.33511172 -0.1674059 0 0 Z " fill="#0B1F33" transform="translate(887.8125,469.8125)"/>
<path d="M0 0 C0.79792969 -0.00128906 1.59585937 -0.00257813 2.41796875 -0.00390625 C3.24683594 -0.00003906 4.07570313 0.00382812 4.9296875 0.0078125 C6.18458984 0.00201172 6.18458984 0.00201172 7.46484375 -0.00390625 C13.67803876 0.00616376 13.67803876 0.00616376 14.8046875 1.1328125 C14.90415203 2.90140443 14.93548967 4.67392701 14.9375 6.4453125 C14.93878906 7.52039063 14.94007812 8.59546875 14.94140625 9.703125 C14.93753906 10.83492188 14.93367188 11.96671875 14.9296875 13.1328125 C14.93355469 14.26460938 14.93742187 15.39640625 14.94140625 16.5625 C14.94011719 17.63757813 14.93882813 18.71265625 14.9375 19.8203125 C14.93637207 20.81417969 14.93524414 21.80804688 14.93408203 22.83203125 C14.8046875 25.1328125 14.8046875 25.1328125 13.8046875 26.1328125 C10.15105931 26.09099157 6.50698647 26.00642891 2.85742188 25.83007812 C-4.54126481 25.66539178 -9.6501986 27.70081477 -15.0078125 32.8203125 C-20.35489753 40.91732698 -20.64605239 48.94131118 -20.671875 58.4453125 C-20.68745453 59.69538086 -20.70303406 60.94544922 -20.71908569 62.23339844 C-20.75836082 65.52746092 -20.78582843 68.8213172 -20.80657959 72.11553955 C-20.838355 76.78313481 -20.88961163 81.45052841 -20.94296265 86.11791992 C-20.97024797 88.59849178 -20.99157352 91.07913744 -21.00650024 93.55981445 C-21.02189346 95.22790161 -21.02189346 95.22790161 -21.03759766 96.9296875 C-21.04409332 97.91291992 -21.05058899 98.89615234 -21.05728149 99.90917969 C-21.1953125 102.1328125 -21.1953125 102.1328125 -22.1953125 103.1328125 C-24.10989532 103.23253036 -26.02813567 103.26361839 -27.9453125 103.265625 C-29.110625 103.26691406 -30.2759375 103.26820313 -31.4765625 103.26953125 C-32.70375 103.26566406 -33.9309375 103.26179687 -35.1953125 103.2578125 C-37.03609375 103.26361328 -37.03609375 103.26361328 -38.9140625 103.26953125 C-40.079375 103.26824219 -41.2446875 103.26695312 -42.4453125 103.265625 C-43.52296875 103.26449707 -44.600625 103.26336914 -45.7109375 103.26220703 C-48.1953125 103.1328125 -48.1953125 103.1328125 -49.1953125 102.1328125 C-49.29813221 99.53923383 -49.33472695 96.97308896 -49.328125 94.37890625 C-49.32944427 93.55481766 -49.33076355 92.73072906 -49.3321228 91.88166809 C-49.33407316 89.11118073 -49.32760478 86.34079005 -49.3203125 83.5703125 C-49.31942627 82.62128052 -49.31854004 81.67224854 -49.31762695 80.69445801 C-49.28931104 54.50332405 -48.73855039 28.31740262 -48.1953125 2.1328125 C-44.04949363 2.10394499 -39.90370034 2.08605923 -35.7578125 2.0703125 C-33.98180664 2.05774414 -33.98180664 2.05774414 -32.16992188 2.04492188 C-31.04521484 2.04169922 -29.92050781 2.03847656 -28.76171875 2.03515625 C-27.71959229 2.02991943 -26.67746582 2.02468262 -25.60375977 2.01928711 C-23.1953125 2.1328125 -23.1953125 2.1328125 -22.1953125 3.1328125 C-22.12272304 5.31920703 -22.11157467 7.50781639 -22.1328125 9.6953125 C-22.14183594 10.89285156 -22.15085937 12.09039062 -22.16015625 13.32421875 C-22.17175781 14.25105469 -22.18335938 15.17789062 -22.1953125 16.1328125 C-21.86660156 15.55273438 -21.53789063 14.97265625 -21.19921875 14.375 C-16.40745323 6.50559646 -9.71032096 0.01496197 0 0 Z " fill="#2272C5" transform="translate(1303.1953125,469.8671875)"/>
<path d="M0 0 C6.27411536 3.76446922 9.26295909 9.39447342 11.4921875 16.22265625 C13.88391498 26.85106319 12.61377331 37.10130701 6.90234375 46.40625 C3.29192569 51.15309491 -1.03010989 53.8941779 -6.8125 55.3125 C-14.70213678 56.18912631 -22.35101357 56.41842984 -28.8125 51.3125 C-34.76307531 45.93383353 -37.81653437 39.48739256 -38.24609375 31.47265625 C-38.26312439 29.77352235 -38.26423515 28.07415962 -38.25 26.375 C-38.26998047 25.53259766 -38.28996094 24.69019531 -38.31054688 23.82226562 C-38.30480514 16.36374917 -35.93574822 10.90568929 -32.1875 4.5625 C-23.0839788 -4.06188851 -11.23450611 -5.18515667 0 0 Z " fill="#FCFCFD" transform="translate(778.8125,495.6875)"/>
<path d="M0 0 C1.118871 -0.00990463 2.237742 -0.01980927 3.39051819 -0.03001404 C5.23274208 -0.02326157 5.23274208 -0.02326157 7.11218262 -0.01637268 C8.4050267 -0.02323593 9.69787079 -0.03009918 11.02989197 -0.03717041 C14.57739495 -0.05513554 18.12465106 -0.05392739 21.6721859 -0.04822803 C24.63209779 -0.04514136 27.5919619 -0.05122269 30.55186701 -0.05726677 C37.53311277 -0.07132104 44.51423619 -0.06974293 51.4954834 -0.05836487 C58.70231497 -0.04687886 65.90877463 -0.06096508 73.11555719 -0.08776134 C79.29992883 -0.10989673 85.48418353 -0.11656075 91.66859198 -0.11068493 C95.36371102 -0.10730938 99.05859156 -0.10976984 102.75367737 -0.12693596 C106.87211785 -0.14523341 110.98983134 -0.13124052 115.10827637 -0.11402893 C116.33642563 -0.1236969 117.56457489 -0.13336487 118.8299408 -0.14332581 C120.5082473 -0.1285746 120.5082473 -0.1285746 122.22045898 -0.11352539 C123.68164783 -0.11321146 123.68164783 -0.11321146 125.17235565 -0.1128912 C127.61022949 0.38768005 127.61022949 0.38768005 129.45490265 2.19244289 C131.2044686 5.5167941 130.53037639 7.83854203 129.61022949 11.38768005 C126.26995449 13.61453006 125.20108493 13.64146915 121.30311584 13.65510559 C120.20251831 13.66363556 119.10192078 13.67216553 117.9679718 13.68095398 C116.76009506 13.68004761 115.55221832 13.67914124 114.30773926 13.6782074 C112.40014328 13.68828323 112.40014328 13.68828323 110.45401001 13.69856262 C106.96434175 13.71624029 103.47477154 13.7209187 99.98506284 13.72219419 C97.07247408 13.72409289 94.15990818 13.73144998 91.24732822 13.73853838 C84.37634018 13.75482626 77.50540455 13.75970694 70.63439941 13.75828552 C63.54461666 13.75708361 56.45513808 13.77819423 49.36543232 13.80977285 C43.27957016 13.83591503 37.19380748 13.84665371 31.10788959 13.8453747 C27.47252426 13.8448645 23.83742928 13.8505793 20.20211983 13.8717308 C16.14857266 13.89467182 12.09570825 13.88560506 8.04211426 13.8735199 C6.83626175 13.88475891 5.63040924 13.89599792 4.38801575 13.90757751 C3.28459839 13.89918854 2.18118103 13.89079956 1.04432678 13.88215637 C0.08587136 13.88324591 -0.87258406 13.88433544 -1.86008358 13.88545799 C-5.15305552 13.23748501 -6.34731709 12.00229789 -8.38977051 9.38768005 C-8.83708764 6.25646011 -9.08153594 4.35190246 -7.19928741 1.72831631 C-4.720946 -0.10783915 -3.07047522 0.00765911 0 0 Z " fill="#FEFEFE" transform="translate(245.3897705078125,454.61231994628906)"/>
<path d="M0 0 C1.39312408 -0.01029488 1.39312408 -0.01029488 2.81439209 -0.02079773 C5.89090171 -0.03912973 8.9669044 -0.03521862 12.04345703 -0.02954102 C14.17953661 -0.03410022 16.31561471 -0.039405 18.45169067 -0.04542542 C22.93237255 -0.05436946 27.41287633 -0.0519192 31.89355469 -0.04199219 C37.63610594 -0.03050952 43.37804165 -0.05069698 49.12051201 -0.07990932 C53.53345651 -0.09825625 57.94625316 -0.0979817 62.35922623 -0.0922718 C64.47632841 -0.09211836 66.59344046 -0.09818177 68.71050644 -0.11056328 C71.67197994 -0.12544018 74.63231222 -0.1148196 77.59375 -0.09765625 C78.90622208 -0.1121582 78.90622208 -0.1121582 80.24520874 -0.12695312 C84.30243672 -0.07771272 86.43029991 0.10403335 89.97439575 2.24790955 C91.92626953 4.40405273 91.92626953 4.40405273 92.48876953 7.40405273 C91.77791243 11.19529059 91.04309668 12.13817695 87.92626953 14.40405273 C84.86769411 15.00650273 81.84829572 14.96067797 78.73901367 14.9375 C77.34567055 14.95042336 77.34567055 14.95042336 75.92417908 14.96360779 C72.85297801 14.98631426 69.782686 14.97951994 66.71142578 14.97045898 C64.57677437 14.9756927 62.44212529 14.98196825 60.30747986 14.98924255 C55.83272422 14.99965559 51.3582864 14.9950725 46.88354492 14.98046875 C41.1487302 14.96328495 35.41491774 14.98676706 29.68021488 15.02195835 C25.27153379 15.04391838 20.863093 15.04249411 16.45437431 15.03419304 C14.34006082 15.03337266 12.22572983 15.04025256 10.11146736 15.05496407 C7.15465833 15.07238258 4.19965621 15.05788918 1.24291992 15.03515625 C0.36950958 15.04684845 -0.50390076 15.05854065 -1.40377808 15.07058716 C-5.78515718 15.0020433 -7.558912 14.79558043 -11.15602112 12.05992126 C-13.07373047 9.40405273 -13.07373047 9.40405273 -13.07373047 6.27905273 C-10.72281182 -0.47983839 -6.47255308 -0.03314695 0 0 Z " fill="#F5F9FC" transform="translate(273.07373046875,487.595947265625)"/>
<path d="M0 0 C1.25619141 0.01353516 2.51238281 0.02707031 3.80664062 0.04101562 C6.89237279 0.07621409 9.97721024 0.12545695 13.0625 0.1875 C13.1050963 1.59999325 13.13517796 3.01286663 13.16015625 4.42578125 C13.17828369 5.21251221 13.19641113 5.99924316 13.21508789 6.80981445 C12.84553 12.5684134 9.80578771 16.79248837 5.625 20.5625 C-0.29550115 25.48022485 -6.14325566 25.61714898 -13.609375 25.5078125 C-18.05161792 25.08027269 -19.7695063 24.26987225 -22.9375 21.1875 C-23.865625 20.32125 -23.865625 20.32125 -24.8125 19.4375 C-26.51831109 16.02587781 -26.68077161 12.86138538 -25.9375 9.1875 C-19.64111491 -0.92487606 -10.75634468 -0.21997768 0 0 Z " fill="#FCFDFD" transform="translate(957.9375,529.8125)"/>
<path d="M0 0 C1.20205078 0.00644531 2.40410156 0.01289062 3.64257812 0.01953125 C5.51139648 0.04466797 5.51139648 0.04466797 7.41796875 0.0703125 C9.31579102 0.08384766 9.31579102 0.08384766 11.25195312 0.09765625 C14.36998439 0.12118856 17.48762972 0.15406705 20.60546875 0.1953125 C20.6699629 2.10241597 20.71582728 4.01015505 20.75390625 5.91796875 C20.78145996 6.98023682 20.80901367 8.04250488 20.83740234 9.13696289 C20.45894308 14.1274463 18.31038217 16.98042771 14.60546875 20.1953125 C7.54352762 25.39951776 0.21002629 26.44584153 -8.39453125 25.1953125 C-11.11280896 24.17725032 -12.22550551 23.25017899 -14.39453125 21.1953125 C-15.32265625 20.3290625 -15.32265625 20.3290625 -16.26953125 19.4453125 C-17.98952759 16.00531981 -18.24682885 12.88631098 -17.39453125 9.1953125 C-13.24748755 2.10386778 -8.08771743 -0.07666083 0 0 Z " fill="#FCFDFE" transform="translate(1187.39453125,529.8046875)"/>
<path d="M0 0 C4.87851593 2.79297334 7.30378548 6.00259481 9.51171875 11.125 C10.00671875 14.59 10.00671875 14.59 10.51171875 18.125 C-3.01828125 18.125 -16.54828125 18.125 -30.48828125 18.125 C-28.89358406 10.15151403 -25.89689599 5.79794825 -19.48828125 1.125 C-13.90633918 -2.3212425 -6.06694401 -2.13343086 0 0 Z " fill="#F6F7F8" transform="translate(613.48828125,491.875)"/>
<path d="M0 0 C8.25 0 16.5 0 25 0 C24.67 0.66 24.34 1.32 24 2 C12.615 1.505 12.615 1.505 1 1 C1 33.34 1 65.68 1 99 C8.92 99 16.84 99 25 99 C25 94.38 25 89.76 25 85 C25.33 85 25.66 85 26 85 C26 90.28 26 95.56 26 101 C21.68745917 101.02682299 17.37508293 101.04675244 13.0625 101.0625 C11.83080078 101.07087891 10.59910156 101.07925781 9.33007812 101.08789062 C8.16025391 101.09111328 6.99042969 101.09433594 5.78515625 101.09765625 C4.15912476 101.10551147 4.15912476 101.10551147 2.50024414 101.11352539 C0 101 0 101 -1 100 C-1.10281971 97.40642133 -1.13941445 94.84027646 -1.1328125 92.24609375 C-1.13413177 91.42200516 -1.13545105 90.59791656 -1.1368103 89.74885559 C-1.13876066 86.97836823 -1.13229228 84.20797755 -1.125 81.4375 C-1.12411377 80.48846802 -1.12322754 79.53943604 -1.12231445 78.56164551 C-1.09399826 52.37025546 -0.53516687 26.18495056 0 0 Z " fill="#175FBF" transform="translate(1255,472)"/>
<path d="M0 0 C9.57 0 19.14 0 29 0 C29.33 1.32 29.66 2.64 30 4 C21.09 3.67 12.18 3.34 3 3 C3 4.98 3 6.96 3 9 C1 7 1 7 0 0 Z " fill="#1D2939" transform="translate(441,434)"/>
<path d="M0 0 C3.35585467 3.0202692 4.22157001 4.55392503 6 9 C15.57 9 25.14 9 35 9 C35.33 8.34 35.66 7.68 36 7 C36.495 8.98 36.495 8.98 37 11 C32.69530892 11.22352603 28.39373467 11.38623281 24.08496094 11.49438477 C22.62179723 11.53948228 21.15903561 11.60078644 19.69726562 11.67895508 C7.5499521 12.31197244 7.5499521 12.31197244 3.66894531 9.02685547 C1.69039326 6.12416491 0 3.58095013 0 0 Z " fill="#0C61BE" transform="translate(1103,562)"/>
<path d="M0 0 C0.68383255 0.00424484 1.3676651 0.00848969 2.07221985 0.01286316 C4.25297686 0.02963522 6.43280434 0.06728218 8.61328125 0.10546875 C10.0930856 0.12051761 11.57290445 0.13420567 13.05273438 0.14648438 C16.67738461 0.17953306 20.30149219 0.23130429 23.92578125 0.29296875 C23.59578125 1.28296875 23.26578125 2.27296875 22.92578125 3.29296875 C11.92578125 3.29296875 0.92578125 3.29296875 -10.07421875 3.29296875 C-7.34874536 -0.52445521 -4.43595216 -0.05431778 0 0 Z " fill="#0E63C1" transform="translate(1114.07421875,433.70703125)"/>
<path d="M0 0 C0.33 0.66 0.66 1.32 1 2 C-0.15374612 5.0223624 -1.5167911 7.92197743 -2.87109375 10.859375 C-4.04778214 14.13293024 -4.21162563 16.55205079 -4 20 C-4.66 20 -5.32 20 -6 20 C-6 22.31 -6 24.62 -6 27 C-6.33 27 -6.66 27 -7 27 C-7.71690878 16.70439332 -5.46231411 8.73344205 0 0 Z " fill="#090F1C" transform="translate(720,492)"/>
<path d="M0 0 C2.64 0 5.28 0 8 0 C7.67 6.27 7.34 12.54 7 19 C6.67 19 6.34 19 6 19 C6 13.72 6 8.44 6 3 C4.68 3 3.36 3 2 3 C2 2.34 2 1.68 2 1 C1.34 0.67 0.68 0.34 0 0 Z " fill="#1C2C3E" transform="translate(698,552)"/>
<path d="M0 0 C0.98120464 3.05263664 0.98120464 4.94736336 0 8 C1.32 8.33 2.64 8.66 4 9 C2.35 9.33 0.7 9.66 -1 10 C-2.15837626 5.94568308 -1.83691257 3.78187881 0 0 Z " fill="#1D67C1" transform="translate(1151,493)"/>
<path d="M0 0 C0 0.99 0 1.98 0 3 C-2.31 3 -4.62 3 -7 3 C-7.33 2.34 -7.66 1.68 -8 1 C-5.10765685 0.17361624 -3.11257569 0 0 0 Z " fill="#1E2A3A" transform="translate(938,513)"/>
<path d="M0 0 C0.99 0.33 1.98 0.66 3 1 C2 3 2 3 -0.8125 4.1875 C-4 5 -4 5 -8 4 C-5.36 3.34 -2.72 2.68 0 2 C0 1.34 0 0.68 0 0 Z " fill="#09111E" transform="translate(626,568)"/>
</svg>
